<svg width="44" height="43" viewBox="0 0 44 43" fill="none" xmlns="http://www.w3.org/2000/svg">
<g filter="url(#filter0_d_1_265)">
<rect x="5.45833" y="1.93245" width="32.1483" height="30.8933" rx="12.3958" fill="#F03E3D"/>
<rect x="5.45833" y="1.93245" width="32.1483" height="30.8933" rx="12.3958" stroke="white" stroke-width="2.91667"/>
<rect x="5.45833" y="1.93245" width="32.1483" height="30.8933" rx="12.3958" stroke="#F03E3D" stroke-width="2.91667"/>
<path d="M29.8136 12.2973C29.5007 11.9891 28.9932 11.9891 28.6802 12.2973L19.0779 21.753L15.3869 18.1184C15.0739 17.8102 14.5665 17.8102 14.2534 18.1184C13.9404 18.4266 13.9404 18.9263 14.2534 19.2345L18.5111 23.4271C18.824 23.7353 19.3318 23.7351 19.6446 23.4271L29.8136 13.4135C30.1267 13.1053 30.1266 12.6056 29.8136 12.2973Z" fill="white"/>
</g>
<defs>
<filter id="filter0_d_1_265" x="0" y="0.474121" width="43.0649" height="41.8101" filterUnits="userSpaceOnUse" color-interpolation-filters="sRGB">
<feFlood flood-opacity="0" result="BackgroundImageFix"/>
<feColorMatrix in="SourceAlpha" type="matrix" values="0 0 0 0 0 0 0 0 0 0 0 0 0 0 0 0 0 0 127 0" result="hardAlpha"/>
<feOffset dy="4"/>
<feGaussianBlur stdDeviation="2"/>
<feComposite in2="hardAlpha" operator="out"/>
<feColorMatrix type="matrix" values="0 0 0 0 0 0 0 0 0 0 0 0 0 0 0 0 0 0 0.25 0"/>
<feBlend mode="normal" in2="BackgroundImageFix" result="effect1_dropShadow_1_265"/>
<feBlend mode="normal" in="SourceGraphic" in2="effect1_dropShadow_1_265" result="shape"/>
</filter>
</defs>
</svg>
